<svg width="24" height="24" viewBox="0 0 24 24" fill="none" xmlns="http://www.w3.org/2000/svg">
<circle r="11.5" transform="matrix(-1 0 0 1 12 12)" fill="#FDFEFE" stroke="#A7AEAF"/>
<path fill-rule="evenodd" clip-rule="evenodd" d="M16.1777 12.3386C16.3129 11.9985 16.2369 11.5995 15.9498 11.3256L11.7071 7.27934C11.3166 6.90689 10.6834 6.90689 10.2929 7.27934C9.90237 7.65179 9.90237 8.25565 10.2929 8.6281L13.8284 12L10.2929 15.3719C9.90237 15.7444 9.90237 16.3482 10.2929 16.7207C10.6834 17.0931 11.3166 17.0931 11.7071 16.7207L15.9497 12.6744C15.9497 12.6744 15.9498 12.6744 15.9498 12.6744C16.0531 12.5758 16.1291 12.461 16.1777 12.3386Z" fill="#98A1A3"/>
</svg>
