<svg width="28" height="28" viewBox="0 0 28 28" fill="none" xmlns="http://www.w3.org/2000/svg">
<rect width="28" height="28" rx="2" fill="#F9F9F9"/>
<path d="M9 17.9336H10.3623V9.43457H9V7L15.4951 7.01758C16.0986 7.01758 16.6494 7.12598 17.1475 7.34277C17.6514 7.55371 18.085 7.84375 18.4482 8.21289C18.8115 8.57617 19.0928 9.00391 19.292 9.49609C19.4971 9.98242 19.5996 10.501 19.5996 11.0518C19.5996 11.6963 19.4854 12.2295 19.2568 12.6514C19.0342 13.0732 18.7148 13.4131 18.2988 13.6709C18.7383 13.9521 19.084 14.3008 19.3359 14.7168C19.5938 15.127 19.7227 15.6279 19.7227 16.2197C19.7227 16.8232 19.6172 17.377 19.4062 17.8809C19.2012 18.3848 18.917 18.8213 18.5537 19.1904C18.1963 19.5537 17.7715 19.8379 17.2793 20.043C16.7871 20.2422 16.2568 20.3418 15.6885 20.3418H9V17.9336ZM13.2803 14.8311V17.9336H15.4951C15.665 17.9336 15.8232 17.8896 15.9697 17.8018C16.1221 17.7139 16.251 17.5996 16.3564 17.459C16.4678 17.3125 16.5557 17.1455 16.6201 16.958C16.6846 16.7646 16.7168 16.5654 16.7168 16.3604C16.7168 16.1436 16.6846 15.9443 16.6201 15.7627C16.5557 15.5752 16.4678 15.4141 16.3564 15.2793C16.2451 15.1387 16.1133 15.0303 15.9609 14.9541C15.8145 14.8721 15.6592 14.8311 15.4951 14.8311H13.2803ZM13.2803 9.43457V12.4229H15.3721C15.5361 12.4229 15.6914 12.3818 15.8379 12.2998C15.9844 12.2178 16.1104 12.1094 16.2158 11.9746C16.3271 11.834 16.415 11.6787 16.4795 11.5088C16.5439 11.333 16.5762 11.1514 16.5762 10.9639C16.5762 10.7822 16.5439 10.6006 16.4795 10.4189C16.415 10.2373 16.3271 10.0732 16.2158 9.92676C16.1104 9.78027 15.9844 9.66309 15.8379 9.5752C15.6914 9.48145 15.5361 9.43457 15.3721 9.43457H13.2803Z" fill="#495154"/>
</svg>
