<svg width="26" height="26" viewBox="0 0 26 26" fill="none" xmlns="http://www.w3.org/2000/svg">
<path d="M10.6508 16.6938L10.3951 16.3242L10.0004 16.5392L4.80446 19.3695L3.18119 17.5184C3.85451 16.8162 4.65423 15.908 5.42937 15.0263L5.49179 14.9553C6.38344 13.941 7.23604 12.9711 7.85355 12.3536C8.41807 11.789 9.17585 10.9524 9.91015 10.1417C10.0308 10.0085 10.1508 9.87599 10.2693 9.7455C11.1216 8.80633 11.8655 8.00182 12.2288 7.70518C13.2922 6.94633 14.5932 6.5 16 6.5C19.5899 6.5 22.5 9.41015 22.5 13C22.5 16.5899 19.5899 19.5 16 19.5C13.7828 19.5 11.8247 18.3903 10.6508 16.6938Z" fill="#FF5D16" stroke="black"/>
<circle cx="16" cy="13" r="3.5" fill="#FF5D16" stroke="black"/>
</svg>
