<svg width="48" height="48" viewBox="0 0 48 48" fill="none" xmlns="http://www.w3.org/2000/svg">
<rect width="48" height="48" rx="2" fill="#1877F2"/>
<path d="M40 24.0978C40 15.2072 32.8366 8 24 8C15.1634 8 8 15.2072 8 24.0978C8 32.1327 13.851 38.7924 21.5 40V28.7511H17.4375V24.0978H21.5V20.5513C21.5 16.5167 23.8887 14.2882 27.5434 14.2882C29.294 14.2882 31.125 14.6026 31.125 14.6026V18.5642H29.1074C27.1198 18.5642 26.5 19.8051 26.5 21.0781V24.0978H30.9375L30.2281 28.7511H26.5V40C34.149 38.7924 40 32.1327 40 24.0978Z" fill="white"/>
<path d="M30.2281 28.625L30.9375 24H26.5V20.9987C26.5 19.7333 27.1198 18.5 29.1074 18.5H31.125V14.5625C31.125 14.5625 29.294 14.25 27.5434 14.25C23.8887 14.25 21.5 16.465 21.5 20.475V24H17.4375V28.625H21.5V39.8056C22.3146 39.9334 23.1495 40 24 40C24.8505 40 25.6854 39.9334 26.5 39.8056V28.625H30.2281Z" fill="#1877F2"/>
</svg>
