<svg width="48" height="48" viewBox="0 0 48 48" fill="none" xmlns="http://www.w3.org/2000/svg">
<rect width="48" height="48" rx="2" fill="#F00075"/>
<path d="M24 10.8829C28.2722 10.8829 28.7782 10.8992 30.4654 10.9762C32.0254 11.0474 32.8725 11.308 33.4363 11.5271C34.1832 11.8173 34.7162 12.164 35.276 12.724C35.836 13.2838 36.1827 13.8169 36.4729 14.5637C36.692 15.1275 36.9527 15.9746 37.0238 17.5346C37.1008 19.2218 37.1171 19.7278 37.1171 24C37.1171 28.2722 37.1008 28.7782 37.0238 30.4654C36.9526 32.0254 36.692 32.8725 36.4729 33.4363C36.1827 34.1832 35.836 34.7162 35.276 35.276C34.7161 35.836 34.1831 36.1827 33.4363 36.4729C32.8725 36.692 32.0254 36.9527 30.4654 37.0238C28.7785 37.1008 28.2725 37.1171 24 37.1171C19.7276 37.1171 19.2216 37.1008 17.5347 37.0238C15.9747 36.9526 15.1275 36.692 14.5637 36.4729C13.8169 36.1827 13.2839 35.836 12.724 35.276C12.1642 34.7162 11.8174 34.1831 11.5271 33.4363C11.308 32.8725 11.0474 32.0254 10.9762 30.4654C10.8993 28.7782 10.8829 28.2722 10.8829 24C10.8829 19.7278 10.8993 19.2218 10.9762 17.5346C11.0474 15.9746 11.308 15.1275 11.5271 14.5637C11.8174 13.8168 12.1641 13.2838 12.724 12.724C13.2839 12.1641 13.8169 11.8173 14.5637 11.5271C15.1275 11.308 15.9747 11.0473 17.5347 10.9762C19.2218 10.8992 19.7278 10.8829 24 10.8829ZM24 8C19.6547 8 19.1098 8.01842 17.4033 8.09628C15.7002 8.17402 14.5372 8.44446 13.5195 8.84001C12.4673 9.2489 11.575 9.796 10.6855 10.6855C9.79606 11.575 9.24897 12.4673 8.84007 13.5194C8.44452 14.5372 8.17409 15.7002 8.09635 17.4032C8.01842 19.1098 8 19.6547 8 24C8 28.3454 8.01842 28.8903 8.09628 30.5968C8.17402 32.2999 8.44446 33.4629 8.84001 34.4806C9.2489 35.5327 9.79599 36.425 10.6855 37.3145C11.575 38.204 12.4673 38.7511 13.5194 39.16C14.5372 39.5555 15.7002 39.826 17.4032 39.9037C19.1098 39.9816 19.6547 40 24 40C28.3453 40 28.8902 39.9816 30.5967 39.9037C32.2998 39.826 33.4628 39.5555 34.4805 39.16C35.5327 38.7511 36.425 38.204 37.3145 37.3145C38.2039 36.425 38.751 35.5327 39.1599 34.4806C39.5555 33.4628 39.8259 32.2998 39.9037 30.5968C39.9815 28.8902 39.9999 28.3453 39.9999 24C39.9999 19.6547 39.9815 19.1098 39.9037 17.4033C39.8259 15.7002 39.5555 14.5372 39.1599 13.5195C38.751 12.4673 38.2039 11.575 37.3145 10.6855C36.425 9.79606 35.5326 9.24897 34.4805 8.84007C33.4628 8.44452 32.2997 8.17409 30.5967 8.09635C28.8902 8.01842 28.3453 8 24 8Z" fill="white"/>
<path d="M24 15.7838C19.4623 15.7838 15.7838 19.4623 15.7838 24C15.7838 28.5378 19.4623 32.2163 24 32.2163C28.5377 32.2163 32.2163 28.5378 32.2163 24C32.2163 19.4623 28.5377 15.7838 24 15.7838ZM24 29.3333C21.0545 29.3333 18.6667 26.9455 18.6667 24C18.6667 21.0545 21.0545 18.6667 24 18.6667C26.9456 18.6667 29.3333 21.0545 29.3333 24C29.3333 26.9455 26.9455 29.3333 24 29.3333Z" fill="white"/>
<path d="M32.5408 17.3791C33.6012 17.3791 34.4608 16.5195 34.4608 15.4592C34.4608 14.3988 33.6012 13.5392 32.5408 13.5392C31.4805 13.5392 30.6208 14.3988 30.6208 15.4592C30.6208 16.5195 31.4805 17.3791 32.5408 17.3791Z" fill="white"/>
</svg>
