<svg width="28" height="28" viewBox="0 0 28 28" fill="none" xmlns="http://www.w3.org/2000/svg">
<rect width="28" height="28" rx="2" fill="#F9F9F9"/>
<path fill-rule="evenodd" clip-rule="evenodd" d="M11.5933 9.69531C11.5933 9.41917 11.8171 9.19531 12.0933 9.19531H22.0933C22.3694 9.19531 22.5933 9.41917 22.5933 9.69531C22.5933 9.97145 22.3694 10.1953 22.0933 10.1953H12.0933C11.8171 10.1953 11.5933 9.97145 11.5933 9.69531Z" fill="#495154"/>
<path fill-rule="evenodd" clip-rule="evenodd" d="M11.5933 14.6953C11.5933 14.4192 11.8171 14.1953 12.0933 14.1953H22.0933C22.3694 14.1953 22.5933 14.4192 22.5933 14.6953C22.5933 14.9715 22.3694 15.1953 22.0933 15.1953H12.0933C11.8171 15.1953 11.5933 14.9715 11.5933 14.6953Z" fill="#495154"/>
<path fill-rule="evenodd" clip-rule="evenodd" d="M11.5933 19.6953C11.5933 19.4192 11.8171 19.1953 12.0933 19.1953H22.0933C22.3694 19.1953 22.5933 19.4192 22.5933 19.6953C22.5933 19.9715 22.3694 20.1953 22.0933 20.1953H12.0933C11.8171 20.1953 11.5933 19.9715 11.5933 19.6953Z" fill="#495154"/>
<path d="M5.98633 11.2588H6.52979V8.55518L5.7334 9.03027V7.84082L7.16211 7L7.65771 7.00684V11.2588H8.20459V12.1953H5.98633V11.2588Z" fill="#495154"/>
<path d="M5.02734 20.3066L6.81836 18.4028C6.97331 18.2524 7.09294 18.1021 7.17725 17.9517C7.26156 17.8013 7.30371 17.6486 7.30371 17.4937C7.30371 17.4276 7.29004 17.3626 7.2627 17.2988C7.23535 17.2327 7.19548 17.1746 7.14307 17.1245C7.09294 17.0721 7.03027 17.0311 6.95508 17.0015C6.88216 16.9696 6.79899 16.9536 6.70557 16.9536C6.59391 16.9536 6.49593 16.9718 6.41162 17.0083C6.32959 17.0425 6.26009 17.0903 6.20312 17.1519C6.14844 17.2134 6.10628 17.2852 6.07666 17.3672C6.04704 17.4492 6.03109 17.5358 6.02881 17.627H5C5 17.3581 5.04443 17.1188 5.1333 16.9092C5.22217 16.6973 5.34408 16.5195 5.49902 16.376C5.65625 16.2301 5.83968 16.1196 6.04932 16.0444C6.25895 15.9692 6.4834 15.9316 6.72266 15.9316C6.94824 15.9316 7.16243 15.9658 7.36523 16.0342C7.57031 16.1025 7.75033 16.2028 7.90527 16.335C8.0625 16.4671 8.18669 16.63 8.27783 16.8237C8.36898 17.0174 8.41455 17.2407 8.41455 17.4937C8.41455 17.6965 8.3724 17.8844 8.28809 18.0576C8.20605 18.2285 8.0944 18.3926 7.95312 18.5498L6.47656 20.146H8.40771V21.1953H5.02734V20.3066Z" fill="#495154"/>
</svg>
