<svg width="26" height="26" viewBox="0 0 26 26" fill="none" xmlns="http://www.w3.org/2000/svg">
<path d="M8 11.5C6.42809 11.5 5.02761 11.9257 4.03471 12.5876C3.03831 13.2519 2.5 14.1146 2.5 15V19C2.5 19.3331 2.70253 19.6959 3.15603 19.9982C3.60604 20.2982 4.25652 20.5 5 20.5H11C11.7435 20.5 12.394 20.2982 12.844 19.9982C13.2975 19.6959 13.5 19.3331 13.5 19V15C13.5 14.1146 12.9617 13.2519 11.9653 12.5876C10.9724 11.9257 9.57191 11.5 8 11.5Z" fill="#AFEAFF" stroke="black"/>
<circle r="3.5" transform="matrix(-1 0 0 1 7 9)" fill="#FFFAC1" stroke="black"/>
<path d="M19 11.5C16.4048 11.5 14.5 13.1654 14.5 15V19C14.5 19.7301 15.2855 20.5 16.5 20.5H21.5C22.7145 20.5 23.5 19.7301 23.5 19V15C23.5 13.1654 21.5952 11.5 19 11.5Z" fill="#AFEAFF" stroke="black"/>
<circle r="3.5" transform="matrix(-1 0 0 1 19 9)" fill="#FFFAC1" stroke="black"/>
<path d="M13 11.5C10.4048 11.5 8.5 13.1654 8.5 15V19C8.5 19.7301 9.28555 20.5 10.5 20.5H15.5C16.7145 20.5 17.5 19.7301 17.5 19V15C17.5 13.1654 15.5952 11.5 13 11.5Z" fill="#FF5D16" stroke="black"/>
<circle r="3.5" transform="matrix(-1 0 0 1 13 9)" fill="#FFFAC1" stroke="black"/>
</svg>
