<svg width="32" height="32" viewBox="0 0 32 32" fill="none" xmlns="http://www.w3.org/2000/svg">
<path fill-rule="evenodd" clip-rule="evenodd" d="M20.3171 7.43901C23.2644 10.3864 23.769 14.8515 21.8308 18.3185L26.561 23.0488C27.5309 24.0186 27.5309 25.5911 26.561 26.5609C25.5912 27.5308 24.0187 27.5308 23.0488 26.5609L18.3186 21.8308C14.8516 23.769 10.3864 23.2644 7.43902 20.3171C3.88285 16.7609 3.88285 10.9952 7.43902 7.43901C10.9952 3.88284 16.7609 3.88284 20.3171 7.43901ZM17.2869 17.2869C19.1696 15.4042 19.1696 12.3518 17.2869 10.4691C15.4043 8.58646 12.3518 8.58646 10.4692 10.4691C8.58648 12.3518 8.58648 15.4042 10.4692 17.2869C12.3518 19.1696 15.4043 19.1696 17.2869 17.2869Z" fill="#C4C4C4"/>
</svg>
