<svg width="28" height="28" viewBox="0 0 28 28" fill="none" xmlns="http://www.w3.org/2000/svg">
<rect width="28" height="28" rx="2" fill="#F9F9F9"/>
<path d="M5 13.5176H23V14.5176H5V13.5176Z" fill="#495154"/>
<path d="M15.8047 9.6543C15.9922 9.91211 16.0859 10.2988 16.0859 10.8145H18.2393V9.30273H17.5801C17.4102 8.96289 17.1992 8.65234 16.9473 8.37109C16.7012 8.08398 16.4141 7.84082 16.0859 7.6416C15.7637 7.43652 15.4004 7.27832 14.9961 7.16699C14.5977 7.05566 14.1611 7 13.6865 7C12.9658 7 12.3242 7.09668 11.7617 7.29004C11.2051 7.47754 10.7334 7.73828 10.3467 8.07227C9.95996 8.40625 9.66699 8.7959 9.46777 9.24121C9.26855 9.68652 9.16895 10.1641 9.16895 10.6738C9.16895 11.1777 9.23633 11.623 9.37109 12.0098C9.50586 12.3906 9.69629 12.7246 9.94238 13.0117C10.1943 13.2988 10.4932 13.542 10.8389 13.7412C11.1904 13.9404 11.5771 14.1045 11.999 14.2334L13.0028 14.5176H17.2789C17.0149 14.2472 16.6935 14.0119 16.3145 13.8115C15.9102 13.5947 15.4414 13.4014 14.9082 13.2314L13.1328 12.6514C12.8984 12.5693 12.6523 12.4873 12.3945 12.4053C12.1426 12.3232 11.9111 12.2119 11.7002 12.0713C11.4893 11.9248 11.3135 11.7344 11.1729 11.5C11.0381 11.2598 10.9707 10.9463 10.9707 10.5596C10.9707 10.3018 11.0264 10.0557 11.1377 9.82129C11.249 9.58691 11.4131 9.38184 11.6299 9.20605C11.8525 9.03027 12.1309 8.89258 12.4648 8.79297C12.7988 8.6875 13.1885 8.63477 13.6338 8.63477C13.9033 8.63477 14.1729 8.67285 14.4424 8.74902C14.7119 8.81934 14.958 8.9248 15.1807 9.06543C15.4092 9.2002 15.6172 9.39648 15.8047 9.6543Z" fill="#495154"/>
<path d="M17.9337 15.5176H15.5215C15.7447 15.6898 15.927 15.8975 16.0684 16.1406C16.2207 16.3867 16.2969 16.6885 16.2969 17.0459C16.2969 17.3682 16.2354 17.6582 16.1123 17.916C15.9951 18.168 15.8223 18.3848 15.5938 18.5664C15.3711 18.7422 15.0986 18.877 14.7764 18.9707C14.46 19.0645 14.1025 19.1113 13.7041 19.1113C13.2939 19.1113 12.9189 19.0674 12.5791 18.9795C12.2393 18.8857 11.9463 18.751 11.7002 18.5752C11.4541 18.3936 11.2607 18.168 11.1201 17.8984C10.9854 17.6289 10.918 17.1689 10.918 16.5186H8.70312V18.0303H9.37109C9.48242 18.3818 9.6377 18.7246 9.83691 19.0586C10.0361 19.3926 10.2998 19.6914 10.6279 19.9551C10.9619 20.2129 11.3721 20.418 11.8584 20.5703C12.3447 20.7285 12.9307 20.8076 13.6162 20.8076C14.2842 20.8076 14.8965 20.7109 15.4531 20.5176C16.0156 20.3184 16.499 20.0459 16.9033 19.7002C17.3076 19.3545 17.6211 18.9473 17.8438 18.4785C18.0723 18.0098 18.1865 17.5 18.1865 16.9492C18.1865 16.4395 18.1133 15.9912 17.9668 15.6045C17.9562 15.5753 17.9451 15.5463 17.9337 15.5176Z" fill="#495154"/>
</svg>
