<svg width="48" height="48" viewBox="0 0 48 48" fill="none" xmlns="http://www.w3.org/2000/svg">
<rect width="48" height="48" rx="2" fill="#1DA1F2"/>
<path d="M40 14.0787C38.8227 14.6013 37.5573 14.9533 36.2293 15.112C37.5853 14.3 38.6267 13.0133 39.116 11.48C37.848 12.232 36.4427 12.7787 34.9467 13.0733C33.7507 11.7973 32.0427 11 30.1547 11C25.916 11 22.8013 14.9547 23.7587 19.06C18.304 18.7867 13.4667 16.1733 10.228 12.2013C8.508 15.152 9.336 19.012 12.2587 20.9667C11.184 20.932 10.1707 20.6373 9.28667 20.1453C9.21467 23.1867 11.3947 26.032 14.552 26.6653C13.628 26.916 12.616 26.9747 11.5867 26.7773C12.4213 29.3853 14.8453 31.2827 17.72 31.336C14.96 33.5 11.4827 34.4667 8 34.056C10.9053 35.9187 14.3573 37.0053 18.064 37.0053C30.2533 37.0053 37.14 26.7107 36.724 17.4773C38.0067 16.5507 39.12 15.3947 40 14.0787Z" fill="white"/>
</svg>
