<svg width="28" height="28" viewBox="0 0 28 28" fill="none" xmlns="http://www.w3.org/2000/svg">
<rect width="28" height="28" rx="2" fill="#F9F9F9"/>
<path fill-rule="evenodd" clip-rule="evenodd" d="M10 9.5C10 9.22386 10.2239 9 10.5 9H20.5C20.7761 9 21 9.22386 21 9.5C21 9.77614 20.7761 10 20.5 10H10.5C10.2239 10 10 9.77614 10 9.5Z" fill="#495154"/>
<path fill-rule="evenodd" clip-rule="evenodd" d="M10 14.5C10 14.2239 10.2239 14 10.5 14H20.5C20.7761 14 21 14.2239 21 14.5C21 14.7761 20.7761 15 20.5 15H10.5C10.2239 15 10 14.7761 10 14.5Z" fill="#495154"/>
<path fill-rule="evenodd" clip-rule="evenodd" d="M10 19.5C10 19.2239 10.2239 19 10.5 19H20.5C20.7761 19 21 19.2239 21 19.5C21 19.7761 20.7761 20 20.5 20H10.5C10.2239 20 10 19.7761 10 19.5Z" fill="#495154"/>
<path d="M8 14C8 14.5523 7.55228 15 7 15C6.44772 15 6 14.5523 6 14C6 13.4477 6.44772 13 7 13C7.55228 13 8 13.4477 8 14Z" fill="#495154"/>
<path d="M8 9C8 9.55228 7.55228 10 7 10C6.44772 10 6 9.55228 6 9C6 8.44772 6.44772 8 7 8C7.55228 8 8 8.44772 8 9Z" fill="#495154"/>
<path d="M8 19C8 19.5523 7.55228 20 7 20C6.44772 20 6 19.5523 6 19C6 18.4477 6.44772 18 7 18C7.55228 18 8 18.4477 8 19Z" fill="#495154"/>
</svg>
