<svg width="26" height="26" viewBox="0 0 26 26" fill="none" xmlns="http://www.w3.org/2000/svg">
<path d="M21.3064 12.8064C21.3064 15.0779 19.465 16.9193 17.1935 16.9193C14.922 16.9193 13.0806 15.0779 13.0806 12.8064C13.0806 10.535 14.922 8.69354 17.1935 8.69354C19.465 8.69354 21.3064 10.535 21.3064 12.8064Z" fill="#FFFAC1" stroke="black"/>
<line x1="17.1128" y1="6.85486" x2="17.1128" y2="4.50002" stroke="black" stroke-linecap="round"/>
<line x1="25.5" y1="12.8871" x2="23.1452" y2="12.8871" stroke="black" stroke-linecap="round"/>
<line x1="21.8066" y1="8.1812" x2="23.4718" y2="6.51608" stroke="black" stroke-linecap="round"/>
<line x1="0.5" y1="-0.5" x2="2.85484" y2="-0.5" transform="matrix(-0.707106 -0.707107 -0.707106 0.707107 13.2754 8.88831)" stroke="black" stroke-linecap="round"/>
<mask id="path-6-inside-1" fill="white">
<path fill-rule="evenodd" clip-rule="evenodd" d="M17.5 22H8C4.13401 22 1 18.866 1 15C1 11.134 4.13401 8 8 8C11.171 8 13.8496 10.1085 14.7101 13H17.5H18V13.0275C20.25 13.2762 22 15.1837 22 17.5C22 19.8163 20.25 21.7238 18 21.9725V22H17.5Z"/>
</mask>
<path fill-rule="evenodd" clip-rule="evenodd" d="M17.5 22H8C4.13401 22 1 18.866 1 15C1 11.134 4.13401 8 8 8C11.171 8 13.8496 10.1085 14.7101 13H17.5H18V13.0275C20.25 13.2762 22 15.1837 22 17.5C22 19.8163 20.25 21.7238 18 21.9725V22H17.5Z" fill="#AFEAFF"/>
<path d="M14.7101 13L13.7517 13.2852L13.9644 14H14.7101V13ZM18 13H19V12H18V13ZM18 13.0275H17V13.923L17.8901 14.0214L18 13.0275ZM18 21.9725L17.8901 20.9786L17 21.077V21.9725H18ZM18 22V23H19V22H18ZM17.5 21H8V23H17.5V21ZM8 21C4.68629 21 2 18.3137 2 15H0C0 19.4183 3.58172 23 8 23V21ZM2 15C2 11.6863 4.68629 9 8 9V7C3.58172 7 0 10.5817 0 15H2ZM8 9C10.7165 9 13.0138 10.8061 13.7517 13.2852L15.6686 12.7148C14.6853 9.4109 11.6255 7 8 7V9ZM14.7101 14H17.5V12H14.7101V14ZM17.5 14H18V12H17.5V14ZM17 13V13.0275H19V13H17ZM17.8901 14.0214C19.639 14.2147 21 15.6991 21 17.5H23C23 14.6683 20.8609 12.3376 18.1099 12.0335L17.8901 14.0214ZM21 17.5C21 19.3009 19.639 20.7853 17.8901 20.9786L18.1099 22.9665C20.8609 22.6624 23 20.3317 23 17.5H21ZM17 21.9725V22H19V21.9725H17ZM18 21H17.5V23H18V21Z" fill="black" mask="url(#path-6-inside-1)"/>
</svg>
