<svg width="26" height="26" viewBox="0 0 26 26" fill="none" xmlns="http://www.w3.org/2000/svg">
<path d="M12.5005 21.5809C17.5155 21.5809 21.581 17.5154 21.581 12.5004C21.581 7.48535 17.5155 3.41986 12.5005 3.41986C7.48541 3.41986 3.41992 7.48535 3.41992 12.5004C3.41992 17.5154 7.48541 21.5809 12.5005 21.5809Z" fill="#AFEAFF" stroke="black" stroke-miterlimit="10"/>
<path d="M12.5005 3.41986V21.2131" stroke="black" stroke-miterlimit="10"/>
<path d="M3.41992 12.5004H21.5743" stroke="black" stroke-miterlimit="10"/>
<path d="M12.172 21.5717C11.3381 21.1644 10.6553 20.4884 10.0608 19.788C9.28144 18.8701 8.65748 17.8162 8.26027 16.6783C7.82862 15.4413 7.71861 14.1304 7.67074 12.8296C7.66402 12.6583 7.65898 12.4878 7.65479 12.3165V12.6751C7.65982 12.5038 7.66486 12.3333 7.67074 12.162C7.71777 10.8603 7.82778 9.55025 8.25943 8.31325C8.65664 7.17535 9.2806 6.12143 10.0599 5.20355C10.6553 4.50318 11.3381 3.82715 12.172 3.41986" stroke="black" stroke-miterlimit="10"/>
<path d="M12.9243 21.5717C13.7582 21.1644 14.441 20.4884 15.0355 19.788C15.8148 18.8701 16.4388 17.8162 16.836 16.6783C17.2677 15.4413 17.3777 14.1304 17.4255 12.8296C17.4322 12.6583 17.4373 12.4878 17.4415 12.3165V12.6751C17.4364 12.5038 17.4314 12.3333 17.4255 12.162C17.3777 10.8603 17.2677 9.55025 16.836 8.31325C16.4388 7.17535 15.8148 6.12143 15.0355 5.20355C14.441 4.50318 13.7582 3.82715 12.9243 3.41986" stroke="black" stroke-miterlimit="10"/>
<path d="M4.88965 7.46509C5.23564 7.74725 5.81089 7.97819 6.40629 8.17974C7.18644 8.44343 8.08249 8.65422 9.05075 8.78858C10.103 8.9347 11.2174 8.97165 12.3242 8.98845C12.4695 8.99097 12.6148 8.99265 12.7609 8.99433H12.4561C12.6013 8.99265 12.7466 8.99097 12.8927 8.98845C13.9996 8.97249 15.114 8.9347 16.1662 8.78858C17.1336 8.65422 18.0297 8.44259 18.8107 8.17974C19.4061 7.97819 19.9813 7.74725 20.3273 7.46509" stroke="black" stroke-miterlimit="10"/>
<path d="M4.88965 17.3896C5.23564 17.1074 5.81089 16.8765 6.40629 16.6749C7.18644 16.4112 8.08249 16.2005 9.05075 16.0661C10.103 15.92 11.2174 15.883 12.3242 15.8662C12.4695 15.8637 12.6148 15.862 12.7609 15.8604H12.4561C12.6013 15.862 12.7466 15.8637 12.8927 15.8662C13.9996 15.8822 15.114 15.92 16.1662 16.0661C17.1336 16.2005 18.0297 16.4121 18.8107 16.6749C19.4061 16.8765 19.9813 17.1074 20.3273 17.3896" stroke="black" stroke-miterlimit="10"/>
</svg>
