<svg width="694" height="694" viewBox="0 0 694 694" fill="none" xmlns="http://www.w3.org/2000/svg">
<path fill-rule="evenodd" clip-rule="evenodd" d="M694 347V348C694 348.178 693.999 348.356 693.997 348.533C693.171 539.471 538.132 694 347 694C155.357 694 0 538.643 0 347C0 155.357 155.357 0 347 0C349.232 0 351.458 0.0210651 353.68 0.0630072C354.448 0.021184 355.221 0 356 0H652C675.196 0 694 18.804 694 42C694 65.196 675.196 84 652 84H573.372H356H347C201.749 84 84 201.749 84 347C84 492.251 201.749 610 347 610C492.251 610 610 492.251 610 347C610 344.324 609.96 341.657 609.881 339H610V275C610 251.804 628.804 233 652 233C675.196 233 694 251.804 694 275V347ZM694 158C694 181.196 675.196 200 652 200C628.804 200 610 181.196 610 158C610 134.804 628.804 116 652 116C675.196 116 694 134.804 694 158Z" fill="#FF5D16"/>
<path d="M425.54 667.959C464.339 660.019 496.227 637.06 516.381 606.386C503.098 615.788 488.017 625.572 483.406 626.516C480.239 627.164 468.155 631.876 453.946 637.417C428.603 647.301 396.499 659.821 396.17 656.618C395.76 652.619 402.051 626.685 416.5 612.5C414.21 610.085 413.365 606.342 413.114 602.107C412.779 602.18 412.444 602.251 412.107 602.32C370.986 610.736 330.828 584.222 322.412 543.101C313.997 501.98 340.51 461.822 381.631 453.406C393.594 450.958 405.475 451.466 416.517 454.43L416.528 454.387C421.405 455.703 426.656 455.93 431.942 454.848C450.068 451.139 461.755 433.438 458.045 415.312C455.277 401.787 444.719 391.847 432.007 389.213C411.751 384.065 390.047 383.295 368.198 387.767C290.825 403.602 240.938 479.161 256.773 556.534C272.608 633.907 348.167 683.794 425.54 667.959Z" fill="#FF5D16"/>
<path d="M404.808 317.566C424.471 316.234 443.446 319.117 460.849 325.443L460.877 325.359C465.379 326.706 470.195 327.283 475.159 326.947C497.378 325.442 514.17 306.21 512.665 283.992C511.494 266.693 499.577 252.684 483.872 248.038C457.471 239.094 428.904 235.104 399.359 237.105C279.377 245.23 188.7 349.082 196.826 469.063C201.002 530.736 230.471 584.665 274.422 621.414L318.95 553.082C295.283 530.294 279.682 498.975 277.287 463.614C272.171 388.07 329.264 322.682 404.808 317.566Z" fill="#FF5D16"/>
<path d="M589.5 576C596.507 552.839 610.604 534.115 621.131 521.906C594.369 603.838 520.056 665.415 428.784 671.596C413.622 672.623 398.718 672.072 384.231 670.083C407.728 659.892 431.591 643.943 454.19 622.5C469.384 608.084 473.66 611.105 480.26 615.768C485.002 619.118 490.944 623.316 503 622.5L589.5 576Z" fill="#FF5D16"/>
</svg>
